# xmcd
#
# Track frame offsets: 
#        300
#        13561
#        23805
#        38186
#        51384
#        63232
#        73667
#        90233
#        104657
#        117605
#
# Disc length: 1750 seconds
#
# Revision: 0
# Processed by: cddbd v1.5.1PL0 Copyright (c) Steve Scherf et al.
# Submitted via: ExactAudioCopy v0.95a5
#
DISCID=8706d20a
DTITLE=Tom T. Hall - Everything From Jesus To Jack Daniels
DYEAR=1983
DGENRE=Country
TTITLE0=Everything From Jesus To Jack Daniels
TTITLE1=How'd You Get Home So Soon
TTITLE2=Barrom Stranger
TTITLE3=Senior Citizen Star
TTITLE4=The Letters
TTITLE5=I'm Just An Easy Man To Love
TTITLE6=The Marmonica Man
TTITLE7=The Adventures Of Linda Bohannon
TTITLE8=What Am I Gonna Do With My Music
TTITLE9=Wasted, Borrowed Money
EXTD=(c)1983 Mercury Records - Polygram USA\nKatalog:  Mercury M 81402
EXTD=5
EXTT0=
EXTT1=
EXTT2=
EXTT3=
EXTT4=
EXTT5=
EXTT6=
EXTT7=
EXTT8=
EXTT9=
PLAYORDER=
